<svg width="20" height="40" viewBox="0 0 20 40" fill="none" xmlns="http://www.w3.org/2000/svg">
<path id="Vector" d="M2 21.3846H18M18 31.0769H2M7.2848 7.7231H9.99995H12.7151M13.6364 11.6923V3.38462C13.6364 3.01739 13.4831 2.66521 13.2103 2.40554C12.9376 2.14588 12.5676 2 12.1818 2H7.81818C7.43241 2 7.06244 2.14588 6.78966 2.40554C6.51688 2.66521 6.36364 3.01739 6.36364 3.38462V11.6923C5.02092 12.5419 3.91983 13.6945 3.15848 15.0474C2.39712 16.4002 1.99914 17.9114 2 19.4462V35.2308C2 35.9652 2.30649 36.6696 2.85205 37.1889C3.39762 37.7082 4.13755 38 4.90909 38H15.0909C15.8624 38 16.6024 37.7082 17.1479 37.1889C17.6935 36.6696 18 35.9652 18 35.2308V19.4462C18.0009 17.9114 17.6029 16.4002 16.8415 15.0474C16.0802 13.6945 14.9791 12.5419 13.6364 11.6923Z" stroke="white" stroke-opacity="0.75" stroke-width="3" stroke-linecap="round" stroke-linejoin="round"/>
</svg>
