<svg width="311" height="344" viewBox="0 0 311 344" fill="none" xmlns="http://www.w3.org/2000/svg">
<g opacity="0.5">
<rect width="6.99766" height="6.99766" transform="matrix(0.720135 0.693834 -0.720135 0.693834 305.961 100.311)" fill="white"/>
</g>
<g opacity="0.5">
<rect width="6.99766" height="6.99766" transform="matrix(0.720135 0.693834 -0.720135 0.693834 231.039 100.311)" fill="white"/>
</g>
<g opacity="0.5">
<rect width="6.99766" height="6.99766" transform="matrix(0.720135 0.693834 -0.720135 0.693834 305.961 133.597)" fill="white"/>
</g>
<g opacity="0.5">
<rect width="6.99766" height="6.99766" transform="matrix(0.720135 0.693834 -0.720135 0.693834 231.039 133.597)" fill="white"/>
</g>
<rect width="6.99766" height="6.99766" transform="matrix(0.720135 0.693834 -0.720135 0.693834 305.961 166.883)" fill="white"/>
<g opacity="0.5">
<rect width="6.99766" height="6.99766" transform="matrix(0.720135 0.693834 -0.720135 0.693834 231.039 166.883)" fill="white"/>
</g>
<g opacity="0.5">
<rect width="6.99766" height="6.99766" transform="matrix(0.720135 0.693834 -0.720135 0.693834 305.961 0)" fill="white"/>
</g>
<rect width="6.99766" height="6.99766" transform="matrix(0.720135 0.693834 -0.720135 0.693834 231.039 0)" fill="white"/>
<g opacity="0.5">
<rect width="6.99766" height="6.99766" transform="matrix(0.720135 0.693834 -0.720135 0.693834 305.961 200.168)" fill="white"/>
</g>
<g opacity="0.5">
<rect width="6.99766" height="6.99766" transform="matrix(0.720135 0.693834 -0.720135 0.693834 231.039 200.168)" fill="white"/>
</g>
<rect width="6.99766" height="6.99766" transform="matrix(0.720135 0.693834 -0.720135 0.693834 305.961 33.2858)" fill="white"/>
<g opacity="0.5">
<rect width="6.99766" height="6.99766" transform="matrix(0.720135 0.693834 -0.720135 0.693834 231.039 33.2858)" fill="white"/>
</g>
<g opacity="0.5">
<rect width="6.99766" height="6.99766" transform="matrix(0.720135 0.693834 -0.720135 0.693834 305.961 233.454)" fill="white"/>
</g>
<g opacity="0.5">
<rect width="6.99766" height="6.99766" transform="matrix(0.720135 0.693834 -0.720135 0.693834 231.039 233.454)" fill="white"/>
</g>
<g opacity="0.5">
<rect width="6.99766" height="6.99766" transform="matrix(0.720135 0.693834 -0.720135 0.693834 305.961 66.5715)" fill="white"/>
</g>
<g opacity="0.5">
<rect width="6.99766" height="6.99766" transform="matrix(0.720135 0.693834 -0.720135 0.693834 231.039 66.5715)" fill="white"/>
</g>
<rect width="6.99766" height="6.99766" transform="matrix(0.720135 0.693834 -0.720135 0.693834 305.961 266.74)" fill="white"/>
<g opacity="0.5">
<rect width="6.99766" height="6.99766" transform="matrix(0.720135 0.693834 -0.720135 0.693834 231.039 266.74)" fill="white"/>
</g>
<g opacity="0.5">
<rect width="6.99766" height="6.99766" transform="matrix(0.720135 0.693834 -0.720135 0.693834 305.961 300.026)" fill="white"/>
</g>
<g opacity="0.5">
<rect width="6.99766" height="6.99766" transform="matrix(0.720135 0.693834 -0.720135 0.693834 231.039 300.026)" fill="white"/>
</g>
<rect width="6.99766" height="6.99766" transform="matrix(0.720135 0.693834 -0.720135 0.693834 305.961 333.312)" fill="white"/>
<g opacity="0.5">
<rect width="6.99766" height="6.99766" transform="matrix(0.720135 0.693834 -0.720135 0.693834 231.039 333.312)" fill="white"/>
</g>
<g opacity="0.5">
<rect width="6.99766" height="6.99766" transform="matrix(0.720135 0.693834 -0.720135 0.693834 271.413 100.311)" fill="white"/>
</g>
<g opacity="0.5">
<rect width="6.99766" height="6.99766" transform="matrix(0.720135 0.693834 -0.720135 0.693834 271.413 133.597)" fill="white"/>
</g>
<g opacity="0.5">
<rect width="6.99766" height="6.99766" transform="matrix(0.720135 0.693834 -0.720135 0.693834 271.413 166.883)" fill="white"/>
</g>
<g opacity="0.5">
<rect width="6.99766" height="6.99766" transform="matrix(0.720135 0.693834 -0.720135 0.693834 271.413 0)" fill="white"/>
</g>
<rect width="6.99766" height="6.99766" transform="matrix(0.720135 0.693834 -0.720135 0.693834 271.413 200.168)" fill="white"/>
<g opacity="0.5">
<rect width="6.99766" height="6.99766" transform="matrix(0.720135 0.693834 -0.720135 0.693834 271.413 33.2858)" fill="white"/>
</g>
<g opacity="0.5">
<rect width="6.99766" height="6.99766" transform="matrix(0.720135 0.693834 -0.720135 0.693834 271.413 233.454)" fill="white"/>
</g>
<rect width="6.99766" height="6.99766" transform="matrix(0.720135 0.693834 -0.720135 0.693834 271.413 66.5715)" fill="white"/>
<g opacity="0.5">
<rect width="6.99766" height="6.99766" transform="matrix(0.720135 0.693834 -0.720135 0.693834 271.413 266.74)" fill="white"/>
</g>
<g opacity="0.5">
<rect width="6.99766" height="6.99766" transform="matrix(0.720135 0.693834 -0.720135 0.693834 271.413 300.026)" fill="white"/>
</g>
<g opacity="0.5">
<rect width="6.99766" height="6.99766" transform="matrix(0.720135 0.693834 -0.720135 0.693834 271.413 333.312)" fill="white"/>
</g>
<g opacity="0.5">
<rect width="6.99766" height="6.99766" transform="matrix(0.720135 0.693834 -0.720135 0.693834 193.961 100.311)" fill="white"/>
</g>
<g opacity="0.5">
<rect width="6.99766" height="6.99766" transform="matrix(0.720135 0.693834 -0.720135 0.693834 119.039 100.311)" fill="white"/>
</g>
<g opacity="0.5">
<rect width="6.99766" height="6.99766" transform="matrix(0.720135 0.693834 -0.720135 0.693834 193.961 133.597)" fill="white"/>
</g>
<g opacity="0.5">
<rect width="6.99766" height="6.99766" transform="matrix(0.720135 0.693834 -0.720135 0.693834 119.039 133.597)" fill="white"/>
</g>
<rect width="6.99766" height="6.99766" transform="matrix(0.720135 0.693834 -0.720135 0.693834 193.961 166.883)" fill="white"/>
<g opacity="0.5">
<rect width="6.99766" height="6.99766" transform="matrix(0.720135 0.693834 -0.720135 0.693834 119.039 166.883)" fill="white"/>
</g>
<g opacity="0.5">
<rect width="6.99766" height="6.99766" transform="matrix(0.720135 0.693834 -0.720135 0.693834 193.961 0)" fill="white"/>
</g>
<rect width="6.99766" height="6.99766" transform="matrix(0.720135 0.693834 -0.720135 0.693834 119.039 0)" fill="white"/>
<g opacity="0.5">
<rect width="6.99766" height="6.99766" transform="matrix(0.720135 0.693834 -0.720135 0.693834 193.961 200.168)" fill="white"/>
</g>
<g opacity="0.5">
<rect width="6.99766" height="6.99766" transform="matrix(0.720135 0.693834 -0.720135 0.693834 119.039 200.168)" fill="white"/>
</g>
<rect width="6.99766" height="6.99766" transform="matrix(0.720135 0.693834 -0.720135 0.693834 193.961 33.2858)" fill="white"/>
<g opacity="0.5">
<rect width="6.99766" height="6.99766" transform="matrix(0.720135 0.693834 -0.720135 0.693834 119.039 33.2858)" fill="white"/>
</g>
<g opacity="0.5">
<rect width="6.99766" height="6.99766" transform="matrix(0.720135 0.693834 -0.720135 0.693834 193.961 233.454)" fill="white"/>
</g>
<g opacity="0.5">
<rect width="6.99766" height="6.99766" transform="matrix(0.720135 0.693834 -0.720135 0.693834 119.039 233.454)" fill="white"/>
</g>
<g opacity="0.5">
<rect width="6.99766" height="6.99766" transform="matrix(0.720135 0.693834 -0.720135 0.693834 193.961 66.5715)" fill="white"/>
</g>
<g opacity="0.5">
<rect width="6.99766" height="6.99766" transform="matrix(0.720135 0.693834 -0.720135 0.693834 119.039 66.5715)" fill="white"/>
</g>
<rect width="6.99766" height="6.99766" transform="matrix(0.720135 0.693834 -0.720135 0.693834 193.961 266.74)" fill="white"/>
<g opacity="0.5">
<rect width="6.99766" height="6.99766" transform="matrix(0.720135 0.693834 -0.720135 0.693834 119.039 266.74)" fill="white"/>
</g>
<g opacity="0.5">
<rect width="6.99766" height="6.99766" transform="matrix(0.720135 0.693834 -0.720135 0.693834 193.961 300.026)" fill="white"/>
</g>
<g opacity="0.5">
<rect width="6.99766" height="6.99766" transform="matrix(0.720135 0.693834 -0.720135 0.693834 119.039 300.026)" fill="white"/>
</g>
<rect width="6.99766" height="6.99766" transform="matrix(0.720135 0.693834 -0.720135 0.693834 193.961 333.312)" fill="white"/>
<g opacity="0.5">
<rect width="6.99766" height="6.99766" transform="matrix(0.720135 0.693834 -0.720135 0.693834 119.039 333.312)" fill="white"/>
</g>
<g opacity="0.5">
<rect width="6.99766" height="6.99766" transform="matrix(0.720135 0.693834 -0.720135 0.693834 159.413 100.311)" fill="white"/>
</g>
<g opacity="0.5">
<rect width="6.99766" height="6.99766" transform="matrix(0.720135 0.693834 -0.720135 0.693834 159.413 133.597)" fill="white"/>
</g>
<g opacity="0.5">
<rect width="6.99766" height="6.99766" transform="matrix(0.720135 0.693834 -0.720135 0.693834 159.413 166.883)" fill="white"/>
</g>
<g opacity="0.5">
<rect width="6.99766" height="6.99766" transform="matrix(0.720135 0.693834 -0.720135 0.693834 159.413 0)" fill="white"/>
</g>
<rect width="6.99766" height="6.99766" transform="matrix(0.720135 0.693834 -0.720135 0.693834 159.413 200.168)" fill="white"/>
<g opacity="0.5">
<rect width="6.99766" height="6.99766" transform="matrix(0.720135 0.693834 -0.720135 0.693834 159.413 33.2858)" fill="white"/>
</g>
<g opacity="0.5">
<rect width="6.99766" height="6.99766" transform="matrix(0.720135 0.693834 -0.720135 0.693834 159.413 233.454)" fill="white"/>
</g>
<rect width="6.99766" height="6.99766" transform="matrix(0.720135 0.693834 -0.720135 0.693834 159.413 66.5715)" fill="white"/>
<g opacity="0.5">
<rect width="6.99766" height="6.99766" transform="matrix(0.720135 0.693834 -0.720135 0.693834 159.413 266.74)" fill="white"/>
</g>
<g opacity="0.5">
<rect width="6.99766" height="6.99766" transform="matrix(0.720135 0.693834 -0.720135 0.693834 159.413 300.026)" fill="white"/>
</g>
<g opacity="0.5">
<rect width="6.99766" height="6.99766" transform="matrix(0.720135 0.693834 -0.720135 0.693834 159.413 333.312)" fill="white"/>
</g>
<g opacity="0.5">
<rect width="6.99766" height="6.99766" transform="matrix(0.720135 0.693834 -0.720135 0.693834 79.9607 100.311)" fill="white"/>
</g>
<g opacity="0.5">
<rect width="6.99766" height="6.99766" transform="matrix(0.720135 0.693834 -0.720135 0.693834 5.03918 100.311)" fill="white"/>
</g>
<g opacity="0.5">
<rect width="6.99766" height="6.99766" transform="matrix(0.720135 0.693834 -0.720135 0.693834 79.9607 133.597)" fill="white"/>
</g>
<g opacity="0.5">
<rect width="6.99766" height="6.99766" transform="matrix(0.720135 0.693834 -0.720135 0.693834 5.03918 133.597)" fill="white"/>
</g>
<rect width="6.99766" height="6.99766" transform="matrix(0.720135 0.693834 -0.720135 0.693834 79.9607 166.883)" fill="white"/>
<g opacity="0.5">
<rect width="6.99766" height="6.99766" transform="matrix(0.720135 0.693834 -0.720135 0.693834 5.03918 166.883)" fill="white"/>
</g>
<g opacity="0.5">
<rect width="6.99766" height="6.99766" transform="matrix(0.720135 0.693834 -0.720135 0.693834 79.9607 0)" fill="white"/>
</g>
<rect width="6.99766" height="6.99766" transform="matrix(0.720135 0.693834 -0.720135 0.693834 5.03918 0)" fill="white"/>
<g opacity="0.5">
<rect width="6.99766" height="6.99766" transform="matrix(0.720135 0.693834 -0.720135 0.693834 79.9607 200.168)" fill="white"/>
</g>
<g opacity="0.5">
<rect width="6.99766" height="6.99766" transform="matrix(0.720135 0.693834 -0.720135 0.693834 5.03918 200.168)" fill="white"/>
</g>
<rect width="6.99766" height="6.99766" transform="matrix(0.720135 0.693834 -0.720135 0.693834 79.9607 33.2858)" fill="white"/>
<g opacity="0.5">
<rect width="6.99766" height="6.99766" transform="matrix(0.720135 0.693834 -0.720135 0.693834 5.03918 33.2858)" fill="white"/>
</g>
<g opacity="0.5">
<rect width="6.99766" height="6.99766" transform="matrix(0.720135 0.693834 -0.720135 0.693834 79.9607 233.454)" fill="white"/>
</g>
<g opacity="0.5">
<rect width="6.99766" height="6.99766" transform="matrix(0.720135 0.693834 -0.720135 0.693834 5.03918 233.454)" fill="white"/>
</g>
<g opacity="0.5">
<rect width="6.99766" height="6.99766" transform="matrix(0.720135 0.693834 -0.720135 0.693834 79.9607 66.5715)" fill="white"/>
</g>
<g opacity="0.5">
<rect width="6.99766" height="6.99766" transform="matrix(0.720135 0.693834 -0.720135 0.693834 5.03918 66.5715)" fill="white"/>
</g>
<rect width="6.99766" height="6.99766" transform="matrix(0.720135 0.693834 -0.720135 0.693834 79.9607 266.74)" fill="white"/>
<g opacity="0.5">
<rect width="6.99766" height="6.99766" transform="matrix(0.720135 0.693834 -0.720135 0.693834 5.03918 266.74)" fill="white"/>
</g>
<g opacity="0.5">
<rect width="6.99766" height="6.99766" transform="matrix(0.720135 0.693834 -0.720135 0.693834 79.9607 300.026)" fill="white"/>
</g>
<g opacity="0.5">
<rect width="6.99766" height="6.99766" transform="matrix(0.720135 0.693834 -0.720135 0.693834 5.03918 300.026)" fill="white"/>
</g>
<rect width="6.99766" height="6.99766" transform="matrix(0.720135 0.693834 -0.720135 0.693834 79.9607 333.312)" fill="white"/>
<g opacity="0.5">
<rect width="6.99766" height="6.99766" transform="matrix(0.720135 0.693834 -0.720135 0.693834 5.03918 333.312)" fill="white"/>
</g>
<g opacity="0.5">
<rect width="6.99766" height="6.99766" transform="matrix(0.720135 0.693834 -0.720135 0.693834 45.4131 100.311)" fill="white"/>
</g>
<g opacity="0.5">
<rect width="6.99766" height="6.99766" transform="matrix(0.720135 0.693834 -0.720135 0.693834 45.4131 133.597)" fill="white"/>
</g>
<g opacity="0.5">
<rect width="6.99766" height="6.99766" transform="matrix(0.720135 0.693834 -0.720135 0.693834 45.4131 166.883)" fill="white"/>
</g>
<g opacity="0.5">
<rect width="6.99766" height="6.99766" transform="matrix(0.720135 0.693834 -0.720135 0.693834 45.4131 0)" fill="white"/>
</g>
<rect width="6.99766" height="6.99766" transform="matrix(0.720135 0.693834 -0.720135 0.693834 45.4131 200.168)" fill="white"/>
<g opacity="0.5">
<rect width="6.99766" height="6.99766" transform="matrix(0.720135 0.693834 -0.720135 0.693834 45.4131 33.2858)" fill="white"/>
</g>
<g opacity="0.5">
<rect width="6.99766" height="6.99766" transform="matrix(0.720135 0.693834 -0.720135 0.693834 45.4131 233.454)" fill="white"/>
</g>
<rect width="6.99766" height="6.99766" transform="matrix(0.720135 0.693834 -0.720135 0.693834 45.4131 66.5715)" fill="white"/>
<g opacity="0.5">
<rect width="6.99766" height="6.99766" transform="matrix(0.720135 0.693834 -0.720135 0.693834 45.4131 266.74)" fill="white"/>
</g>
<g opacity="0.5">
<rect width="6.99766" height="6.99766" transform="matrix(0.720135 0.693834 -0.720135 0.693834 45.4131 300.026)" fill="white"/>
</g>
<g opacity="0.5">
<rect width="6.99766" height="6.99766" transform="matrix(0.720135 0.693834 -0.720135 0.693834 45.4131 333.312)" fill="white"/>
</g>
</svg>
