<svg width="100" height="69" viewBox="0 0 100 69" fill="none" xmlns="http://www.w3.org/2000/svg">
<g clip-path="url(#clip0_1_2219)">
<g opacity="0.5">
<rect x="85.098" y="4.1189" width="5.82498" height="5.82498" transform="rotate(-45 85.098 4.1189)" fill="#313352"/>
</g>
<g opacity="0.5">
<rect x="85.0981" y="65.3566" width="5.82498" height="5.82498" transform="rotate(-45 85.0981 65.3566)" fill="#313352"/>
</g>
<g opacity="0.5">
<rect y="4.1189" width="5.82498" height="5.82498" transform="rotate(-45 0 4.1189)" fill="#313352"/>
</g>
<rect y="65.3566" width="5.82498" height="5.82498" transform="rotate(-45 0 65.3566)" fill="#313352"/>
<rect x="28.2377" y="4.1189" width="5.82498" height="5.82498" transform="rotate(-45 28.2377 4.1189)" fill="#313352"/>
<g opacity="0.5">
<rect x="28.2378" y="65.3566" width="5.82498" height="5.82498" transform="rotate(-45 28.2378 65.3566)" fill="#313352"/>
</g>
<g opacity="0.5">
<rect x="56.4755" y="4.1189" width="5.82498" height="5.82498" transform="rotate(-45 56.4755 4.1189)" fill="#313352"/>
</g>
<g opacity="0.5">
<rect x="56.4756" y="65.3566" width="5.82498" height="5.82498" transform="rotate(-45 56.4756 65.3566)" fill="#313352"/>
</g>
<g opacity="0.5">
<rect x="85.0981" y="32.3567" width="5.82498" height="5.82498" transform="rotate(-45 85.0981 32.3567)" fill="#313352"/>
</g>
<g opacity="0.5">
<rect y="32.3567" width="5.82498" height="5.82498" transform="rotate(-45 0 32.3567)" fill="#313352"/>
</g>
<g opacity="0.5">
<rect x="28.2378" y="32.3567" width="5.82498" height="5.82498" transform="rotate(-45 28.2378 32.3567)" fill="#313352"/>
</g>
<rect x="56.4756" y="32.3567" width="5.82498" height="5.82498" transform="rotate(-45 56.4756 32.3567)" fill="#313352"/>
</g>
<defs>
<clipPath id="clip0_1_2219">
<rect width="100" height="69" fill="white"/>
</clipPath>
</defs>
</svg>
