<svg width="23" height="15" viewBox="0 0 23 15" fill="none" xmlns="http://www.w3.org/2000/svg">
<path fill-rule="evenodd" clip-rule="evenodd" d="M22.0808 1.47057C22.0808 1.71044 21.9856 1.94048 21.816 2.11009C21.6463 2.2797 21.4163 2.37499 21.1764 2.37499H1.88232C1.64245 2.37499 1.41241 2.2797 1.2428 2.11009C1.07319 1.94048 0.977905 1.71044 0.977905 1.47057C0.977905 1.23071 1.07319 1.00067 1.2428 0.831058C1.41241 0.661448 1.64245 0.566162 1.88232 0.566162H21.1764C21.4163 0.566162 21.6463 0.661448 21.816 0.831058C21.9856 1.00067 22.0808 1.23071 22.0808 1.47057ZM22.0808 7.49999C22.0808 7.73985 21.9856 7.96989 21.816 8.1395C21.6463 8.30911 21.4163 8.4044 21.1764 8.4044H10.9264C10.6866 8.4044 10.4565 8.30911 10.2869 8.1395C10.1173 7.96989 10.022 7.73985 10.022 7.49999C10.022 7.26012 10.1173 7.03008 10.2869 6.86047C10.4565 6.69086 10.6866 6.59557 10.9264 6.59557H21.1764C21.4163 6.59557 21.6463 6.69086 21.816 6.86047C21.9856 7.03008 22.0808 7.26012 22.0808 7.49999ZM22.0808 13.5294C22.0808 13.7693 21.9856 13.9993 21.816 14.1689C21.6463 14.3385 21.4163 14.4338 21.1764 14.4338H1.88232C1.64245 14.4338 1.41241 14.3385 1.2428 14.1689C1.07319 13.9993 0.977905 13.7693 0.977905 13.5294C0.977905 13.2895 1.07319 13.0595 1.2428 12.8899C1.41241 12.7203 1.64245 12.625 1.88232 12.625H21.1764C21.4163 12.625 21.6463 12.7203 21.816 12.8899C21.9856 13.0595 22.0808 13.2895 22.0808 13.5294Z" fill="white"/>
</svg>
