<svg width="144" height="32" viewBox="0 0 144 32" fill="none" xmlns="http://www.w3.org/2000/svg">
<path d="M5.31463 7.27953L7.16211 9.12701L9.00958 7.27954L7.1621 5.43206L5.31463 7.27953Z" fill="white"/>
<path d="M22.3654 7.28124L24.2129 9.12872L26.0604 7.28125L24.2129 5.43377L22.3654 7.28124Z" fill="white"/>
<path d="M5.31622 24.4048L7.1637 26.2523L9.01117 24.4048L7.16369 22.5574L5.31622 24.4048Z" fill="white"/>
<path d="M22.367 24.4065L24.2145 26.254L26.062 24.4066L24.2145 22.5591L22.367 24.4065Z" fill="white"/>
<path fill-rule="evenodd" clip-rule="evenodd" d="M8.89893 1.4227C9.72371 2.82078 10.5437 4.21887 11.3685 5.61695C13.253 8.81679 17.7366 8.93494 19.7746 5.83356C20.7336 4.3764 21.6927 2.91432 22.6517 1.45716L20.4411 0C19.6595 1.3587 18.8731 2.7174 18.0914 4.08103C17.0509 5.88771 14.5046 5.88771 13.464 4.08103C12.6824 2.72233 11.896 1.36362 11.1143 0L8.89893 1.4227Z" fill="white"/>
<path fill-rule="evenodd" clip-rule="evenodd" d="M22.6517 30.128C21.8269 28.7299 21.0069 27.3318 20.1822 25.9337C18.2976 22.7339 13.8141 22.6158 11.7761 25.7171C10.817 27.1743 9.85798 28.6364 8.89893 30.0935L11.1095 31.5507C11.8912 30.192 12.6776 28.8333 13.4592 27.4697C14.4998 25.663 17.0461 25.663 18.0866 27.4697C18.8683 28.8284 19.6547 30.1871 20.4363 31.5507L22.6517 30.128Z" fill="white"/>
<path fill-rule="evenodd" clip-rule="evenodd" d="M1.42268 22.6513C2.82076 21.8265 4.21886 21.0065 5.61695 20.1817C8.81679 18.2972 8.93494 13.8136 5.83355 11.7757C4.37639 10.8166 2.9143 9.85755 1.45714 8.8985L0 11.1091C1.3587 11.8907 2.7174 12.6772 4.08102 13.4588C5.88771 14.4994 5.88771 17.0456 4.08102 18.0862C2.72232 18.8678 1.36363 19.6543 0 20.4359L1.42268 22.6513Z" fill="white"/>
<path fill-rule="evenodd" clip-rule="evenodd" d="M30.1279 8.8985C28.7298 9.72328 27.3317 10.5433 25.9336 11.3681C22.7338 13.2526 22.6156 17.7362 25.717 19.7741C27.1742 20.7332 28.6362 21.6922 30.0934 22.6513L31.5506 20.4407C30.1919 19.6591 28.8332 18.8726 27.4696 18.091C25.6629 17.0504 25.6629 14.5042 27.4696 13.4636C28.8283 12.682 30.1869 11.8955 31.5506 11.1139L30.1279 8.8985Z" fill="white"/>
<path d="M15.3708 21.0334C15 21.0334 14.6292 20.9373 14.3018 20.75L11.5859 19.1887C10.9261 18.8092 10.5168 18.0982 10.5168 17.3392V14.2119C10.5168 13.4529 10.9261 12.7419 11.5859 12.3624L14.3018 10.8012C14.9615 10.4217 15.7801 10.4217 16.4398 10.8012L19.1557 12.3624C19.8154 12.7419 20.2247 13.4529 20.2247 14.2119V17.3392C20.2247 18.0982 19.8154 18.8092 19.1557 19.1887L16.4398 20.75C16.1075 20.9421 15.7415 21.0334 15.3708 21.0334ZM13.3916 17.6467L14.7303 18.4153C15.1252 18.6411 15.6164 18.6411 16.0112 18.4153L17.3499 17.6467C17.7448 17.4209 17.9903 16.9981 17.9903 16.5418V14.9997C17.9903 14.5434 17.7448 14.1206 17.3499 13.8949L16.0112 13.1262C15.6164 12.9005 15.1252 12.9005 14.7303 13.1262L13.3916 13.8949C12.9968 14.1206 12.7512 14.5434 12.7512 14.9997V16.5418C12.7512 16.9981 12.9968 17.4209 13.3916 17.6467Z" fill="white"/>
<path fill-rule="evenodd" clip-rule="evenodd" d="M44.4431 5.66272H42.0674V23.4605H44.4431V14.9495H53.4445V23.4605H55.8202V5.66272H53.4445V12.7895H44.4431V5.66272Z" fill="white"/>
<path fill-rule="evenodd" clip-rule="evenodd" d="M63.4845 10.5165C60.1802 10.5165 57.4382 13.2902 57.4382 16.9549C57.4382 20.6196 60.1802 23.4604 63.4845 23.4604C64.9844 23.4604 66.2968 22.8184 67.2858 21.7454V23.1154H69.5731V10.8375H67.2858V12.1932C66.2921 11.1393 64.9844 10.5165 63.4845 10.5165ZM63.4845 21.2136H63.3064C61.3566 21.113 59.7724 19.3597 59.7724 16.9549C59.7724 14.5501 61.4457 12.7633 63.4845 12.7633C65.125 12.7633 66.5546 13.7501 67.2858 15.0914V18.8136C66.5077 20.2124 65.125 21.2136 63.4845 21.2136Z" fill="white"/>
<path fill-rule="evenodd" clip-rule="evenodd" d="M74.427 5.66272H72V23.4605H74.427V5.66272Z" fill="white"/>
<path fill-rule="evenodd" clip-rule="evenodd" d="M82.9214 10.5165C79.0559 10.5165 76.045 13.3429 76.045 16.9549C76.045 20.5669 79.051 23.4604 82.9214 23.4604C86.7919 23.4604 89.7978 20.5142 89.7978 16.9549C89.7978 13.3956 86.787 10.5165 82.9214 10.5165ZM78.4813 16.9501C78.4813 14.598 80.333 12.7585 82.9214 12.7585C85.5099 12.7585 87.3567 14.5549 87.3567 16.9501C87.3567 19.3454 85.5001 21.2136 82.9214 21.2136C80.3428 21.2136 78.4813 19.3118 78.4813 16.9501Z" fill="white"/>
<path fill-rule="evenodd" clip-rule="evenodd" d="M111.663 23.4556L111.629 23.422C113.986 23.2017 116.253 21.7789 117.051 19.2112L117.16 18.8615H114.738L114.664 19.0244C114.03 20.4472 112.441 21.2088 110.98 21.2088C109.786 21.2088 108.781 20.816 108.048 20.1358C107.375 19.5034 106.924 18.6076 106.796 17.501H117.303V17.228C117.303 13.5202 114.758 10.5165 110.94 10.5165C107.39 10.5165 104.359 13.3046 104.359 16.8831C104.359 20.6867 107.212 23.4604 110.985 23.4604H111.663V23.4556ZM114.555 15.3884H107.018C107.573 13.7549 108.994 12.7585 110.945 12.7585C111.99 12.7585 112.817 13.0507 113.421 13.5537C113.956 13.9992 114.342 14.6172 114.555 15.3884Z" fill="white"/>
<path fill-rule="evenodd" clip-rule="evenodd" d="M124.999 12.83C123.242 12.83 121.912 13.9374 121.264 14.9512V23.4607H118.921V10.8466H121.264V12.2C122.296 11.1714 123.727 10.5168 125.182 10.5168C126.742 10.5168 128.014 11.0533 128.898 11.9933C129.781 12.9334 130.247 14.2474 130.247 15.7584V23.4607H127.904V15.9257C127.904 15.025 127.669 14.2523 127.203 13.711C126.742 13.1745 126.027 12.8251 124.994 12.8251L124.999 12.83Z" fill="white"/>
<path fill-rule="evenodd" clip-rule="evenodd" d="M138.752 12.8297C136.995 12.8297 135.665 13.9371 135.017 14.9509V23.4604H132.674V10.8463H135.017V12.1997C136.049 11.1711 137.48 10.5165 138.935 10.5165C140.495 10.5165 141.768 11.053 142.651 11.993C143.534 12.933 144 14.2471 144 15.758V23.4604H141.657V15.9254C141.657 15.0247 141.422 14.252 140.956 13.7107C140.495 13.1742 139.78 12.8248 138.748 12.8248L138.752 12.8297Z" fill="white"/>
<path fill-rule="evenodd" clip-rule="evenodd" d="M96.9656 10.5165C93.4887 10.5165 90.6068 13.4208 90.6068 17.1597C90.6068 20.8986 93.4936 23.7297 96.9656 23.7297C98.4557 23.7297 99.7639 23.1586 100.787 22.1872V24.8181C100.787 25.4527 100.295 25.9798 99.6606 26.0238L92.2641 26.5802L92.4707 29.1233L100.069 28.5473C102.036 28.4009 103.551 26.7755 103.551 24.8181V10.8485H100.964V12.2689C99.9213 11.1755 98.5442 10.5214 96.9607 10.5214L96.9656 10.5165ZM93.0608 17.1597C93.0608 14.6313 94.8263 12.8107 96.9656 12.8107C98.6918 12.8107 100.147 13.8357 100.969 15.261V19.0633C100.197 20.43 98.6967 21.4404 96.9656 21.4404C94.8214 21.4404 93.0608 19.6784 93.0608 17.1597Z" fill="white"/>
</svg>
