<svg width="187" height="187" viewBox="0 0 187 187" fill="none" xmlns="http://www.w3.org/2000/svg">
<path d="M106 86L79 109.021" stroke="#F5643D" stroke-width="2.29787" stroke-linecap="round" stroke-linejoin="round"/>
<path d="M106 102V86H87.234" stroke="#F5643D" stroke-width="2.29787" stroke-linecap="round" stroke-linejoin="round"/>
<path d="M171.283 93.671L181.06 94.3509L180.965 95.7196L173.904 98.7651L180.477 102.731L180.381 104.113L170.604 103.433L170.686 102.26L178.367 102.794L172.31 99.0892L172.371 98.2094L178.869 95.3774L171.202 94.8441L171.283 93.671Z" fill="#F5643D"/>
<path d="M170.442 104.501L179.309 110.021L179.056 111.241L168.731 112.782L168.983 111.562L171.632 111.194L172.477 107.108L170.193 105.707L170.442 104.501ZM173.338 107.644L172.635 111.044L177.731 110.324L173.338 107.644Z" fill="#F5643D"/>
<path d="M168.328 114.291L177.615 117.422L176.653 120.274C176.102 121.91 175.281 122.973 174.19 123.462C173.096 123.96 171.824 123.965 170.374 123.476C168.95 122.996 167.953 122.227 167.384 121.168C166.821 120.121 166.815 118.78 167.367 117.144L168.328 114.291ZM168.881 115.719L168.304 117.43C168 118.332 167.905 119.098 168.018 119.727C168.137 120.368 168.431 120.896 168.902 121.31C169.382 121.728 170.002 122.065 170.763 122.322C171.541 122.584 172.247 122.694 172.882 122.652C173.517 122.61 174.076 122.37 174.558 121.932C175.038 121.502 175.43 120.837 175.734 119.935L176.31 118.223L168.881 115.719Z" fill="#F5643D"/>
<path d="M165.186 123.183L174.079 127.301L171.531 132.802L170.655 132.396L172.708 127.962L169.608 126.527L167.732 130.579L166.868 130.179L168.744 126.127L165.568 124.656L163.515 129.09L162.639 128.684L165.186 123.183Z" fill="#F5643D"/>
<path d="M159.156 134.82L168.725 138.28L167.999 139.31L159.905 136.188L165.393 143.005L164.642 144.069L156.419 141.13L162.06 147.73L161.334 148.76L154.907 140.869L155.682 139.771L163.642 142.524L158.409 135.904L159.156 134.82Z" fill="#F5643D"/>
<path d="M152.315 143.929L159.682 150.391L158.907 151.275L151.539 144.813L152.315 143.929Z" fill="#F5643D"/>
<path d="M148.256 148.301L154.457 154.593L156.541 152.539L157.219 153.227L152.213 158.16L151.535 157.472L153.619 155.418L147.418 149.127L148.256 148.301Z" fill="#F5643D"/>
<path d="M144.521 151.922L150.599 159.61L149.677 160.339L146.994 156.946L143.007 160.098L145.69 163.491L144.768 164.22L138.69 156.533L139.612 155.804L142.408 159.34L146.394 156.188L143.599 152.652L144.521 151.922Z" fill="#F5643D"/>
<path d="M131.075 161.089C131.703 160.739 132.313 160.549 132.905 160.519C133.497 160.489 134.033 160.607 134.512 160.874C134.992 161.141 135.382 161.544 135.681 162.082L134.605 162.681C134.419 162.347 134.169 162.08 133.855 161.881C133.546 161.69 133.197 161.59 132.808 161.582C132.415 161.587 131.999 161.712 131.558 161.957C130.979 162.279 130.608 162.668 130.444 163.122C130.28 163.576 130.314 164.011 130.546 164.427C130.736 164.77 130.962 165.002 131.222 165.124C131.487 165.255 131.782 165.315 132.107 165.305C132.425 165.299 132.774 165.254 133.154 165.171C133.527 165.092 133.922 165.016 134.341 164.943C135.129 164.804 135.775 164.813 136.279 164.97C136.788 165.136 137.194 165.492 137.498 166.038C137.76 166.49 137.879 166.953 137.854 167.426C137.833 167.908 137.678 168.357 137.387 168.775C137.093 169.206 136.668 169.576 136.114 169.885C135.567 170.189 135.038 170.35 134.524 170.368C134.003 170.391 133.533 170.285 133.113 170.048C132.685 169.817 132.34 169.475 132.077 169.022L133.154 168.423C133.285 168.66 133.476 168.858 133.725 169.019C133.979 169.187 134.273 169.274 134.608 169.28C134.934 169.291 135.285 169.192 135.66 168.983C136.13 168.733 136.447 168.401 136.613 167.989C136.77 167.581 136.729 167.16 136.488 166.728C136.284 166.361 136.025 166.136 135.713 166.054C135.392 165.976 135.007 165.977 134.56 166.055C134.116 166.141 133.605 166.239 133.025 166.348C132.535 166.429 132.073 166.461 131.638 166.447C131.202 166.433 130.809 166.321 130.457 166.111C130.097 165.905 129.783 165.562 129.515 165.081C129.288 164.673 129.179 164.227 129.187 163.742C129.199 163.265 129.358 162.792 129.663 162.323C129.96 161.859 130.431 161.447 131.075 161.089Z" fill="#F5643D"/>
<path d="M122.464 165.232C123.355 164.871 124.204 164.753 125.01 164.879C125.812 165.018 126.532 165.365 127.171 165.922C127.813 166.488 128.323 167.237 128.702 168.171C129.077 169.097 129.23 169.982 129.159 170.826C129.092 171.679 128.819 172.435 128.34 173.092C127.853 173.753 127.164 174.264 126.273 174.625C125.235 175.046 124.29 175.137 123.438 174.898C122.581 174.672 121.88 174.15 121.338 173.333L122.544 172.844C122.911 173.35 123.378 173.684 123.948 173.846C124.512 174.02 125.157 173.96 125.884 173.665C126.532 173.402 127.037 173.021 127.399 172.522C127.764 172.031 127.967 171.451 128.007 170.78C128.042 170.121 127.902 169.402 127.586 168.624C127.271 167.845 126.869 167.228 126.382 166.771C125.889 166.326 125.339 166.05 124.732 165.944C124.128 165.846 123.502 165.929 122.854 166.192C122.127 166.486 121.618 166.884 121.328 167.385C121.032 167.897 120.927 168.458 121.013 169.068L119.807 169.557C119.634 168.61 119.777 167.757 120.234 166.997C120.683 166.241 121.426 165.653 122.464 165.232Z" fill="#F5643D"/>
<path d="M116.652 167.513L119.5 176.889L118.375 177.231L115.527 167.854L116.652 167.513Z" fill="#F5643D"/>
<path d="M113.167 168.571L115.332 178.129L109.42 179.469L109.207 178.526L113.972 177.447L113.217 174.115L108.861 175.102L108.651 174.174L113.007 173.187L112.233 169.773L107.468 170.853L107.254 169.911L113.167 168.571Z" fill="#F5643D"/>
<path d="M105.868 170.168L106.998 179.902L105.83 180.038L99.7368 172.839L100.643 180.641L99.4748 180.776L98.3441 171.042L99.5122 170.906L105.606 178.105L104.699 170.304L105.868 170.168Z" fill="#F5643D"/>
<path d="M91.9431 170.939C92.9043 170.954 93.7316 171.176 94.425 171.607C95.109 172.047 95.6364 172.648 96.0074 173.41C96.3782 174.181 96.5558 175.07 96.5403 176.078C96.5248 177.077 96.32 177.951 95.9257 178.701C95.5312 179.46 94.9854 180.049 94.2882 180.468C93.5817 180.887 92.7478 181.088 91.7866 181.074C90.6667 181.056 89.761 180.772 89.0694 180.219C88.3684 179.677 87.9273 178.923 87.7462 177.959L89.048 177.979C89.188 178.588 89.4884 179.078 89.9494 179.449C90.4009 179.829 91.0187 180.026 91.8026 180.038C92.5025 180.048 93.1163 179.895 93.6439 179.576C94.1714 179.267 94.5845 178.811 94.8832 178.209C95.1723 177.616 95.3234 176.9 95.3364 176.06C95.3494 175.22 95.2206 174.494 94.95 173.883C94.6699 173.282 94.2711 172.814 93.7535 172.479C93.2358 172.153 92.627 171.985 91.9271 171.975C91.1432 171.962 90.5198 172.13 90.0571 172.478C89.5848 172.835 89.2695 173.31 89.1109 173.905L87.8091 173.885C88.0196 172.946 88.4836 172.215 89.2011 171.694C89.9092 171.173 90.8232 170.921 91.9431 170.939Z" fill="#F5643D"/>
<path d="M85.8043 170.822L84.5615 180.543L78.5484 179.775L78.6709 178.816L83.5175 179.436L83.9507 176.048L79.5208 175.481L79.6415 174.537L84.0714 175.103L84.5153 171.632L79.6687 171.012L79.7912 170.054L85.8043 170.822Z" fill="#F5643D"/>
<path d="M57.2033 162.54L52.1568 170.941L50.9807 170.234L51.4745 162.561L44.9561 166.615L43.768 165.901L48.8145 157.501L49.8226 158.106L45.8575 164.707L51.9099 160.993L52.666 161.447L52.2373 168.523L56.1952 161.934L57.2033 162.54Z" fill="#F5643D"/>
<path d="M48.0632 156.943L39.1319 162.357L38.1574 161.581L41.4492 151.674L42.4238 152.45L41.5545 154.98L44.8177 157.579L47.0996 156.175L48.0632 156.943ZM43.9508 158.106L41.2351 155.942L39.5748 160.813L43.9508 158.106Z" fill="#F5643D"/>
<path d="M40.2928 150.624L33.313 157.503L31.2002 155.359C29.9881 154.129 29.4095 152.917 29.4644 151.723C29.5127 150.522 30.082 149.385 31.1722 148.31C32.2424 147.255 33.3782 146.713 34.5796 146.682C35.7678 146.651 36.9679 147.25 38.18 148.48L40.2928 150.624ZM38.7694 150.474L37.5016 149.188C36.8334 148.51 36.193 148.079 35.5806 147.897C34.9549 147.714 34.3508 147.739 33.7684 147.973C33.1792 148.213 32.5988 148.614 32.0272 149.178C31.4422 149.754 31.0255 150.335 30.777 150.921C30.5286 151.506 30.4912 152.113 30.6648 152.742C30.8319 153.363 31.2495 154.013 31.9178 154.691L33.1855 155.977L38.7694 150.474Z" fill="#F5643D"/>
<path d="M33.7379 143.766L26.0505 149.845L22.2907 145.089L23.0485 144.49L26.0789 148.323L28.7585 146.204L25.9886 142.701L26.7354 142.111L29.5053 145.614L32.2508 143.443L29.2204 139.61L29.9782 139.011L33.7379 143.766Z" fill="#F5643D"/>
<path d="M26.0835 133.164L18.6846 140.149L18.0924 139.037L24.5254 133.216L15.9669 135.046L15.3549 133.896L21.6827 127.878L13.2492 129.942L12.657 128.83L22.5968 126.646L23.2285 127.832L17.1849 133.699L25.4526 132.009L26.0835 133.164Z" fill="#F5643D"/>
<path d="M21.0404 122.97L11.9447 126.618L11.5069 125.526L20.6026 121.878L21.0404 122.97Z" fill="#F5643D"/>
<path d="M19.0103 117.489L10.5975 120.184L11.4902 122.971L10.5703 123.266L8.42602 116.573L9.34596 116.278L10.2387 119.064L18.6515 116.369L19.0103 117.489Z" fill="#F5643D"/>
<path d="M17.4639 112.538L7.85916 114.484L7.62561 113.331L11.8654 112.472L10.8561 107.491L6.6163 108.351L6.38274 107.198L15.9875 105.252L16.2211 106.404L11.8029 107.3L12.8122 112.28L17.2304 111.385L17.4639 112.538Z" fill="#F5643D"/>
<path d="M15.3698 96.5057C15.3975 97.2238 15.2911 97.8537 15.0505 98.3954C14.8099 98.9371 14.462 99.3615 14.0068 99.6687C13.5517 99.9758 13.0163 100.141 12.4008 100.165L12.3533 98.9339C12.7356 98.9191 13.0866 98.8169 13.4062 98.6271C13.7165 98.4376 13.963 98.1712 14.1459 97.8279C14.3191 97.4756 14.396 97.0477 14.3766 96.5441C14.351 95.8819 14.1726 95.3751 13.8415 95.0236C13.5103 94.6721 13.107 94.5055 12.6313 94.5239C12.2396 94.539 11.9304 94.635 11.7037 94.8119C11.4677 94.9891 11.2807 95.2252 11.1426 95.5201C11.0042 95.8056 10.8862 96.1371 10.7887 96.5145C10.6909 96.8825 10.5797 97.2698 10.4553 97.6762C10.2233 98.4417 9.92319 99.0137 9.55485 99.3922C9.17719 99.7711 8.67592 99.9726 8.05105 99.9967C7.52914 100.026 7.0628 99.9228 6.65204 99.6864C6.23196 99.4505 5.90118 99.1083 5.6597 98.66C5.40853 98.2026 5.27071 97.6569 5.24622 97.0227C5.22209 96.3978 5.31778 95.8524 5.5333 95.3864C5.74845 94.9111 6.05635 94.5396 6.45699 94.2719C6.85726 93.995 7.31836 93.8417 7.84028 93.8122L7.88781 95.0433C7.61735 95.0537 7.35425 95.134 7.09851 95.2839C6.83345 95.4343 6.62256 95.6572 6.46585 95.9528C6.30878 96.2391 6.23852 96.5968 6.25509 97.0258C6.26629 97.5577 6.41845 97.9909 6.71156 98.3251C7.00432 98.6501 7.39785 98.803 7.89214 98.7839C8.31183 98.7677 8.62909 98.6387 8.84392 98.3969C9.05839 98.1458 9.23195 97.8028 9.36461 97.3681C9.48794 96.9336 9.63207 96.433 9.79699 95.8663C9.94686 95.3935 10.1265 94.9662 10.3359 94.5845C10.5454 94.2028 10.8233 93.9025 11.1698 93.6837C11.5159 93.4555 11.9641 93.3307 12.5144 93.3095C12.9807 93.2915 13.4284 93.3956 13.8574 93.6219C14.2771 93.8486 14.6271 94.204 14.9073 94.6882C15.1872 95.1631 15.3414 95.7689 15.3698 96.5057Z" fill="#F5643D"/>
<path d="M15.5655 86.6105C15.484 87.5684 15.2044 88.3783 14.7266 89.0402C14.2402 89.692 13.6042 90.1765 12.8185 90.4937C12.0235 90.8101 11.1238 90.9256 10.1194 90.8402C9.12435 90.7556 8.26639 90.4906 7.54554 90.0452C6.81539 89.5991 6.26569 89.0137 5.89643 88.2891C5.52797 87.5553 5.38447 86.7094 5.46594 85.7515C5.56086 84.6356 5.90767 83.7518 6.50638 83.1002C7.09658 82.4385 7.87892 82.0507 8.85341 81.9369L8.74307 83.2342C8.12593 83.3316 7.61624 83.5973 7.214 84.0315C6.80325 84.4555 6.56466 85.0582 6.49821 85.8393C6.43889 86.5368 6.54983 87.1598 6.83102 87.7083C7.10292 88.2559 7.52885 88.6996 8.10882 89.0393C8.68027 89.369 9.38449 89.5694 10.2215 89.6405C11.0584 89.7117 11.791 89.6335 12.4193 89.406C13.039 89.1683 13.5337 88.8029 13.9035 88.3098C14.264 87.8159 14.4739 87.2202 14.5332 86.5227C14.5996 85.7416 14.4756 85.1081 14.1609 84.6223C13.8378 84.1265 13.3849 83.7789 12.8024 83.5795L12.9128 82.2822C13.8354 82.5573 14.5317 83.0709 15.0017 83.8227C15.4725 84.5653 15.6604 85.4946 15.5655 86.6105Z" fill="#F5643D"/>
<path d="M16.1796 80.2466L6.53274 78.521L6.73981 77.3634L16.3867 79.089L16.1796 80.2466Z" fill="#F5643D"/>
<path d="M16.802 76.6926L7.30531 74.2732L8.80185 68.3988L9.73795 68.6373L8.53173 73.3721L11.842 74.2154L12.9445 69.8876L13.8671 70.1227L12.7645 74.4504L16.1562 75.3145L17.3624 70.5797L18.2985 70.8182L16.802 76.6926Z" fill="#F5643D"/>
<path d="M18.6737 69.4554L9.49838 66.0126L9.91151 64.9115L19.0994 62.7816L11.746 60.0224L12.1592 58.9214L21.3345 62.3642L20.9214 63.4652L11.7335 65.5952L19.0869 68.3544L18.6737 69.4554Z" fill="#F5643D"/>
<path d="M24.1443 57.0394C23.6956 57.8896 23.1221 58.5262 22.424 58.9493C21.7219 59.3597 20.9473 59.5577 20.1 59.5432C19.2446 59.5244 18.3711 59.2798 17.4797 58.8093C16.5965 58.3432 15.9099 57.7645 15.4199 57.0732C14.9216 56.3775 14.6439 55.6241 14.5865 54.8129C14.5336 53.9934 14.7314 53.1586 15.1801 52.3084C15.7029 51.3179 16.367 50.6394 17.1725 50.273C17.9741 49.894 18.8457 49.8422 19.7874 50.1176L19.1797 51.269C18.5734 51.1179 18.0005 51.1638 17.4607 51.4066C16.9171 51.6368 16.4623 52.0986 16.0964 52.792C15.7696 53.411 15.6287 54.0279 15.6737 54.6426C15.7104 55.253 15.9295 55.8277 16.3309 56.3667C16.7285 56.8932 17.2987 57.3524 18.0416 57.7445C18.7845 58.1366 19.4896 58.3504 20.1568 58.3859C20.8201 58.4089 21.4182 58.2654 21.9511 57.9557C22.4757 57.6416 22.9013 57.175 23.2281 56.5559C23.594 55.8625 23.7269 55.2308 23.6267 54.6608C23.5226 54.0782 23.2412 53.5815 22.7827 53.1706L23.3904 52.0191C24.1326 52.6325 24.5734 53.377 24.7128 54.2526C24.8565 55.12 24.667 56.0489 24.1443 57.0394Z" fill="#F5643D"/>
<path d="M26.9653 51.6756L18.875 46.145L22.2961 41.1406L23.0936 41.6858L20.3362 45.7194L23.1562 47.6472L25.6766 43.9603L26.4625 44.4976L23.9421 48.1844L26.8315 50.1597L29.5889 46.1261L30.3864 46.6712L26.9653 51.6756Z" fill="#F5643D"/>
<path d="M47.2703 29.8105L42.0399 21.523L43.2001 20.7907L49.83 24.6853L49.1434 17.0398L50.3155 16.3L55.546 24.5875L54.5515 25.2152L50.4418 18.7036L51.0339 25.7797L50.288 26.2504L44.1626 22.6831L48.2648 29.1828L47.2703 29.8105Z" fill="#F5643D"/>
<path d="M56.3974 24.1278L55.5955 13.7142L56.7281 13.1948L64.0837 20.603L62.9511 21.1224L61.0862 19.2052L57.2939 20.9443L57.5172 23.6143L56.3974 24.1278ZM57.2152 19.9331L60.3712 18.4858L56.774 14.8063L57.2152 19.9331Z" fill="#F5643D"/>
<path d="M65.3246 20.0948L62.3346 10.762L65.2011 9.84367C66.8454 9.31687 68.1881 9.34734 69.229 9.93511C70.2789 10.52 71.0373 11.5413 71.5043 12.999C71.9628 14.43 71.9348 15.6886 71.4203 16.7747C70.9118 17.849 69.8354 18.6496 68.1911 19.1764L65.3246 20.0948ZM66.1455 18.8027L67.8654 18.2517C68.772 17.9612 69.445 17.5839 69.8843 17.1197C70.3297 16.6438 70.5796 16.0933 70.6342 15.4682C70.6859 14.8342 70.5893 14.135 70.3444 13.3706C70.0938 12.5884 69.7633 11.9544 69.3528 11.4685C68.9423 10.9825 68.4175 10.6753 67.7785 10.5468C67.1484 10.4155 66.38 10.495 65.4734 10.7855L63.7535 11.3365L66.1455 18.8027Z" fill="#F5643D"/>
<path d="M74.4964 17.2894L72.5501 7.68467L78.4913 6.48072L78.6832 7.42748L73.8945 8.39786L74.5729 11.7458L78.95 10.8588L79.139 11.7919L74.762 12.6789L75.4571 16.1091L80.2458 15.1387L80.4376 16.0855L74.4964 17.2894Z" fill="#F5643D"/>
<path d="M87.5411 15.2225L84.6642 5.46221L85.924 5.43789L88.2 13.8095L90.4452 5.35063L91.7469 5.3255L94.2469 13.6928L96.2261 5.23904L97.4858 5.21473L94.9315 15.0659L93.5877 15.0918L91.094 7.04642L88.8566 15.1831L87.5411 15.2225Z" fill="#F5643D"/>
<path d="M99.4562 15.3621L100.362 5.60406L101.533 5.71274L100.627 15.4708L99.4562 15.3621Z" fill="#F5643D"/>
<path d="M104.859 15.9848L106.281 7.26601L103.393 6.79498L103.549 5.84158L110.485 6.97296L110.329 7.92636L107.442 7.45533L106.019 16.1741L104.859 15.9848Z" fill="#F5643D"/>
<path d="M110.188 16.8732L112.823 7.43404L113.956 7.75023L112.793 11.9169L117.687 13.2833L118.851 9.11664L119.983 9.43283L117.348 18.872L116.216 18.5558L117.428 14.2138L112.533 12.8474L111.321 17.1894L110.188 16.8732Z" fill="#F5643D"/>
<path d="M125.714 22.4092C125.063 22.1048 124.552 21.7216 124.18 21.2595C123.809 20.7974 123.591 20.2937 123.527 19.7484C123.463 19.2031 123.561 18.6515 123.822 18.0935L124.938 18.6153C124.776 18.962 124.706 19.3208 124.728 19.6918C124.754 20.0544 124.878 20.3956 125.099 20.7155C125.333 21.0309 125.678 21.2953 126.135 21.5088C126.735 21.7895 127.267 21.8632 127.731 21.73C128.196 21.5967 128.529 21.3145 128.73 20.8833C128.896 20.5282 128.953 20.2094 128.899 19.9268C128.85 19.6359 128.726 19.3615 128.527 19.1036C128.336 18.8497 128.096 18.593 127.805 18.3334C127.523 18.0778 127.23 17.8015 126.925 17.5047C126.351 16.9477 125.98 16.4188 125.813 15.918C125.649 15.4087 125.7 14.8709 125.965 14.3044C126.177 13.827 126.483 13.4599 126.881 13.2031C127.284 12.9378 127.739 12.8006 128.248 12.7914C128.77 12.7777 129.318 12.9053 129.893 13.1741C130.46 13.439 130.901 13.774 131.216 14.1791C131.54 14.5881 131.729 15.032 131.783 15.5108C131.846 15.9935 131.771 16.4736 131.558 16.951L130.442 16.4291C130.557 16.1839 130.606 15.9133 130.59 15.6173C130.578 15.3128 130.476 15.0232 130.285 14.7484C130.103 14.4776 129.817 14.2513 129.428 14.0694C128.95 13.8356 128.496 13.7724 128.064 13.8798C127.641 13.9911 127.325 14.2708 127.115 14.7189C126.937 15.0993 126.907 15.4404 127.023 15.7422C127.148 16.0479 127.373 16.3593 127.699 16.6765C128.029 16.9851 128.408 17.3426 128.836 17.7489C129.187 18.0988 129.485 18.4543 129.728 18.8153C129.971 19.1764 130.111 19.561 130.147 19.9693C130.191 20.3815 130.096 20.837 129.863 21.3358C129.665 21.7585 129.368 22.1087 128.97 22.3864C128.576 22.6556 128.1 22.8038 127.541 22.831C126.991 22.8622 126.382 22.7216 125.714 22.4092Z" fill="#F5643D"/>
<path d="M133.803 26.7413C132.986 26.2342 132.391 25.6176 132.018 24.8915C131.658 24.1625 131.515 23.3759 131.588 22.5318C131.667 21.6797 131.972 20.8255 132.504 19.9691C133.03 19.1207 133.656 18.4763 134.38 18.0359C135.108 17.5875 135.88 17.3632 136.693 17.3627C137.514 17.3672 138.333 17.623 139.15 18.1301C140.101 18.7209 140.731 19.4309 141.041 20.26C141.363 21.0862 141.353 21.9593 141.013 22.8794L139.907 22.1926C140.1 21.5984 140.094 21.0236 139.89 20.4682C139.698 19.9098 139.269 19.4238 138.603 19.0103C138.008 18.641 137.403 18.4573 136.787 18.4591C136.175 18.453 135.586 18.6314 135.021 18.9941C134.468 19.3539 133.97 19.8906 133.527 20.6042C133.083 21.3179 132.821 22.0062 132.739 22.6693C132.669 23.3294 132.771 23.9361 133.042 24.4893C133.319 25.0346 133.755 25.4919 134.349 25.8611C135.015 26.2747 135.636 26.4514 136.212 26.3914C136.8 26.3283 137.316 26.0824 137.758 25.6537L138.864 26.3405C138.2 27.0379 137.426 27.4256 136.543 27.5034C135.668 27.5861 134.754 27.3321 133.803 26.7413Z" fill="#F5643D"/>
<path d="M139.252 30.1965L145.161 22.378L146.099 23.087L140.19 30.9055L139.252 30.1965Z" fill="#F5643D"/>
<path d="M142.272 32.4648L148.734 25.097L153.291 29.0941L152.654 29.8203L148.981 26.5986L146.728 29.1668L150.086 32.1116L149.458 32.8273L146.101 29.8826L143.793 32.5139L147.466 35.7356L146.829 36.4619L142.272 32.4648Z" fill="#F5643D"/>
<path d="M147.649 37.1799L154.85 30.5327L155.647 31.3968L153.418 40.5612L159.189 35.234L159.987 36.0981L152.786 42.7453L151.988 41.8812L154.218 32.7168L148.446 38.0441L147.649 37.1799Z" fill="#F5643D"/>
<path d="M156.476 47.8806C155.919 47.097 155.609 46.2983 155.546 45.4844C155.495 44.6727 155.668 43.8919 156.062 43.142C156.464 42.3867 157.076 41.7171 157.898 41.1331C158.712 40.5545 159.538 40.2022 160.375 40.0761C161.221 39.9446 162.019 40.036 162.769 40.3502C163.524 40.672 164.18 41.2247 164.737 42.0083C165.386 42.9212 165.693 43.8197 165.657 44.7039C165.635 45.5903 165.288 46.3918 164.618 47.1085L163.864 46.0473C164.272 45.5741 164.489 45.0419 164.515 44.4506C164.555 43.8615 164.347 43.2475 163.893 42.6085C163.487 42.0379 163 41.6343 162.431 41.3975C161.87 41.1553 161.258 41.0921 160.596 41.2077C159.947 41.3256 159.28 41.6278 158.595 42.1145C157.91 42.6011 157.402 43.1343 157.07 43.714C156.75 44.2959 156.609 44.8945 156.646 45.5097C156.69 46.1196 156.915 46.7098 157.32 47.2804C157.774 47.9194 158.279 48.3225 158.833 48.4898C159.4 48.6593 159.97 48.6319 160.543 48.4075L161.298 49.4688C160.416 49.8552 159.552 49.9134 158.708 49.6434C157.869 49.3811 157.125 48.7935 156.476 47.8806Z" fill="#F5643D"/>
<path d="M160.004 52.8281L168.585 48.0946L171.513 53.4026L170.668 53.8691L168.308 49.5909L165.317 51.2409L167.474 55.1514L166.64 55.6112L164.483 51.7007L161.418 53.3913L163.778 57.6695L162.932 58.1361L160.004 52.8281Z" fill="#F5643D"/>
</svg>
