<svg width="25" height="22" viewBox="0 0 25 22" fill="none" xmlns="http://www.w3.org/2000/svg">
<path d="M2.27273 22C1.64773 22 1.1125 21.7604 0.667047 21.2813C0.221593 20.8022 -0.000755646 20.227 1.92931e-06 19.5556V13.4444C1.92931e-06 12.7722 0.222729 12.1966 0.668184 11.7174C1.11364 11.2383 1.64849 10.9992 2.27273 11V5.775C1.93182 5.55093 1.6572 5.26085 1.44887 4.90478C1.24053 4.54871 1.13637 4.136 1.13637 3.66667V2.44445C1.13637 1.77222 1.35909 1.19656 1.80455 0.717446C2.25 0.238335 2.78485 -0.00081274 3.40909 2.07508e-06H9.09091C9.71591 2.07508e-06 10.2511 0.239558 10.6966 0.718669C11.142 1.19778 11.3644 1.77304 11.3636 2.44445V3.66667C11.3636 4.13519 11.2595 4.54748 11.0511 4.90356C10.8428 5.25963 10.5682 5.55052 10.2273 5.77622V11H14.7727V5.775C14.4318 5.55093 14.1572 5.26085 13.9489 4.90478C13.7405 4.54871 13.6364 4.136 13.6364 3.66667V2.44445C13.6364 1.77222 13.8591 1.19656 14.3045 0.717446C14.75 0.238335 15.2848 -0.00081274 15.9091 2.07508e-06H21.5909C22.2159 2.07508e-06 22.7511 0.239558 23.1966 0.718669C23.642 1.19778 23.8644 1.77304 23.8636 2.44445V3.66667C23.8636 4.13519 23.7595 4.54748 23.5511 4.90356C23.3428 5.25963 23.0682 5.55052 22.7273 5.77622V11C23.3523 11 23.8875 11.2396 24.333 11.7187C24.7784 12.1978 25.0008 12.773 25 13.4444V19.5556C25 20.2278 24.7773 20.8034 24.3318 21.2826C23.8864 21.7617 23.3515 22.0008 22.7273 22H2.27273ZM15.9091 3.66667H21.5909V2.44445H15.9091V3.66667ZM3.40909 3.66667H9.09091V2.44445H3.40909V3.66667ZM17.0455 11H20.4545V6.11111H17.0455V11ZM4.54546 11H7.95455V6.11111H4.54546V11ZM2.27273 19.5556H22.7273V13.4444H2.27273V19.5556Z" fill="#323351"/>
</svg>
