<svg width="32" height="32" viewBox="0 0 32 32" fill="none" xmlns="http://www.w3.org/2000/svg">
<g clip-path="url(#clip0_1_891)">
<path d="M20.5715 1.14288V14.8572L28.7772 25.3029C29.1769 25.8087 29.4259 26.417 29.4956 27.0579C29.5653 27.6988 29.4529 28.3463 29.1713 28.9263C28.8897 29.5062 28.4503 29.995 27.9035 30.3365C27.3567 30.678 26.7247 30.8585 26.08 30.8572H5.92003C5.27535 30.8585 4.64336 30.678 4.09658 30.3365C3.5498 29.995 3.11039 29.5062 2.82878 28.9263C2.54717 28.3463 2.43477 27.6988 2.50448 27.0579C2.57419 26.417 2.82319 25.8087 3.22289 25.3029L11.4286 14.8572V1.14288M8.00003 1.14288H24" stroke="#313352" stroke-width="3" stroke-linecap="round" stroke-linejoin="round"/>
</g>
<defs>
<clipPath id="clip0_1_891">
<rect width="32" height="32" fill="white"/>
</clipPath>
</defs>
</svg>
