<svg width="20" height="20" viewBox="0 0 20 20" fill="none" xmlns="http://www.w3.org/2000/svg">
<g id="gg:bowl">
<path id="Vector" fill-rule="evenodd" clip-rule="evenodd" d="M17.1225 3.06C16.9662 2.90377 16.7543 2.81601 16.5333 2.81601C16.3124 2.81601 16.1004 2.90377 15.9442 3.06L11.4742 7.53H1.66666V9.19667H1.67332C1.85499 13.6383 5.51332 17.1842 9.99999 17.1842C14.4867 17.1842 18.145 13.6383 18.3267 9.19667H18.3333V7.53H13.8308L17.1225 4.23833C17.2787 4.08206 17.3665 3.87014 17.3665 3.64917C17.3665 3.42819 17.2787 3.21627 17.1225 3.06ZM11.8142 9.19667H16.6583C16.5728 10.9049 15.834 12.515 14.5947 13.6939C13.3554 14.8727 11.7104 15.5301 9.99999 15.5301C8.28957 15.5301 6.64458 14.8727 5.40527 13.6939C4.16596 12.515 3.42715 10.9049 3.34166 9.19667H11.8133H11.8142Z" fill="white"/>
</g>
</svg>
