<svg width="14" height="14" viewBox="0 0 14 14" fill="none" xmlns="http://www.w3.org/2000/svg">
<g id="Group">
<path id="Vector" d="M1.28571 3.42857H8.42856" stroke="white" stroke-width="1.5" stroke-linecap="round" stroke-linejoin="round"/>
<path id="Vector_2" d="M10.5714 5.57143C11.7549 5.57143 12.7143 4.61205 12.7143 3.42858C12.7143 2.24511 11.7549 1.28572 10.5714 1.28572C9.38798 1.28572 8.42859 2.24511 8.42859 3.42858C8.42859 4.61205 9.38798 5.57143 10.5714 5.57143Z" stroke="white" stroke-width="1.5" stroke-linecap="round" stroke-linejoin="round"/>
<path id="Vector_3" d="M12.7143 10.5714H8.42856M4.14285 10.5714H1.28571" stroke="white" stroke-width="1.5" stroke-linecap="round" stroke-linejoin="round"/>
<path id="Vector_4" d="M6.28568 12.7143C7.46915 12.7143 8.42854 11.7549 8.42854 10.5714C8.42854 9.38796 7.46915 8.42857 6.28568 8.42857C5.10221 8.42857 4.14282 9.38796 4.14282 10.5714C4.14282 11.7549 5.10221 12.7143 6.28568 12.7143Z" stroke="white" stroke-width="1.5" stroke-linecap="round" stroke-linejoin="round"/>
</g>
</svg>
