<svg width="20" height="20" viewBox="0 0 20 20" fill="none" xmlns="http://www.w3.org/2000/svg">
<g id="carbon:chemistry">
<path id="Vector" d="M17.0194 14.7612L12.5 8.54688V2.5H13.75V1.25H6.24999V2.5H7.49999V8.54688L2.98061 14.7612C2.70801 15.1359 2.54437 15.5787 2.5078 16.0406C2.47124 16.5025 2.56317 16.9655 2.77343 17.3783C2.98368 17.7912 3.30407 18.1379 3.69913 18.38C4.09419 18.622 4.54853 18.7501 5.01186 18.75H14.9875C15.4508 18.7501 15.9052 18.622 16.3002 18.38C16.6953 18.1379 17.0157 17.7912 17.2259 17.3783C17.4362 16.9655 17.5281 16.5025 17.4915 16.0406C17.455 15.5787 17.2913 15.1359 17.0187 14.7612H17.0194ZM8.74999 8.95312V2.5H11.25V8.95312L12.9206 11.25H7.07936L8.74999 8.95312ZM14.9881 17.5H5.01249C4.77986 17.4998 4.55182 17.4352 4.35354 17.3136C4.15526 17.1919 3.99446 17.0178 3.88888 16.8105C3.78329 16.6032 3.73703 16.3708 3.75521 16.1389C3.77338 15.907 3.85528 15.6846 3.99186 15.4963L6.17061 12.5H13.8294L16.0087 15.4963C16.1453 15.6846 16.2272 15.907 16.2454 16.1389C16.2636 16.3708 16.2173 16.6032 16.1117 16.8105C16.0061 17.0178 15.8453 17.1919 15.6471 17.3136C15.4488 17.4352 15.2207 17.4998 14.9881 17.5Z" fill="white"/>
</g>
</svg>
