<svg width="20" height="20" viewBox="0 0 20 20" fill="none" xmlns="http://www.w3.org/2000/svg">
<path d="M1.66669 16.6667H18.3334V5.83334C18.3334 5.16668 18.0667 4.53334 17.6 4.06668C17.1334 3.60001 16.5 3.33334 15.8334 3.33334H4.16669C3.50002 3.33334 2.86669 3.60001 2.40002 4.06668C1.93335 4.53334 1.66669 5.16668 1.66669 5.83334V16.6667ZM16.6667 9.16668H12.5V7.50001H7.50002V9.16668H3.33335V5.83334C3.33335 5.61668 3.42502 5.41668 3.57502 5.24168C3.75002 5.09168 3.95002 5.00001 4.16669 5.00001H15.8334C16.0584 5.00001 16.25 5.09168 16.425 5.24168C16.5834 5.41668 16.6667 5.61668 16.6667 5.83334V9.16668ZM12.5 10.8333H16.6667V15H3.33335V10.8333H7.50002L9.16669 12.5H10.8334L12.5 10.8333ZM9.16669 9.16668H10.8334V10.8333H9.16669V9.16668Z" fill="white"/>
</svg>
