<svg width="20" height="20" viewBox="0 0 20 20" fill="none" xmlns="http://www.w3.org/2000/svg">
<path d="M15 7.50001C15.925 7.50001 16.6666 8.24168 16.6666 9.16668V11.6667C16.6666 12.5917 15.925 13.3333 15 13.3333H13.1416L12.1083 12.3083C11.4833 11.6667 10.6416 11.3333 9.74998 11.3333C8.85831 11.3333 8.02498 11.6667 7.39165 12.3083L6.36665 13.3333H4.99998C4.07498 13.3333 3.33331 12.5917 3.33331 11.6667V9.16668C3.33331 8.24168 4.07498 7.50001 4.99998 7.50001H15ZM15 5.83334H4.99998C4.11592 5.83334 3.26808 6.18453 2.64296 6.80965C2.01784 7.43478 1.66665 8.28262 1.66665 9.16668H0.833313V11.6667H1.66665C1.66665 12.5507 2.01784 13.3986 2.64296 14.0237C3.26808 14.6488 4.11592 15 4.99998 15H7.08331C7.11665 14.95 7.15831 14.9 8.57498 13.4833C8.89998 13.1583 9.32498 13 9.74998 13C10.1833 13 10.6083 13.1583 10.9333 13.4833L12.425 15H15C15.884 15 16.7319 14.6488 17.357 14.0237C17.9821 13.3986 18.3333 12.5507 18.3333 11.6667H19.1666V9.16668H18.3333C18.3333 8.28262 17.9821 7.43478 17.357 6.80965C16.7319 6.18453 15.884 5.83334 15 5.83334Z" fill="white"/>
</svg>
