<svg width="20" height="20" viewBox="0 0 20 20" fill="none" xmlns="http://www.w3.org/2000/svg">
<path d="M9.99998 17.5C8.8472 17.5 7.86442 17.0936 7.05165 16.2808C6.23887 15.4681 5.83276 14.4856 5.83331 13.3333C5.83331 12.6667 5.97915 12.045 6.27081 11.4683C6.56248 10.8917 6.9722 10.4022 7.49998 10V5C7.49998 4.30556 7.74304 3.71528 8.22915 3.22917C8.71526 2.74306 9.30554 2.5 9.99998 2.5C10.6944 2.5 11.2847 2.74306 11.7708 3.22917C12.2569 3.71528 12.5 4.30556 12.5 5V10C13.0278 10.4028 13.4375 10.8925 13.7291 11.4692C14.0208 12.0458 14.1666 12.6672 14.1666 13.3333C14.1666 14.4861 13.7603 15.4689 12.9475 16.2817C12.1347 17.0944 11.1522 17.5006 9.99998 17.5ZM9.99998 15.8333C10.6944 15.8333 11.2847 15.5903 11.7708 15.1042C12.2569 14.6181 12.5 14.0278 12.5 13.3333C12.5 12.9306 12.413 12.5556 12.2391 12.2083C12.0653 11.8611 11.8189 11.5694 11.5 11.3333L10.8333 10.8333V5C10.8333 4.76389 10.7533 4.56583 10.5933 4.40583C10.4333 4.24583 10.2355 4.16611 9.99998 4.16667C9.76387 4.16667 9.56581 4.24667 9.40581 4.40667C9.24581 4.56667 9.16609 4.76444 9.16665 5V10.8333L8.49998 11.3333C8.18054 11.5694 7.93387 11.8611 7.75998 12.2083C7.58609 12.5556 7.49942 12.9306 7.49998 13.3333C7.49998 14.0278 7.74304 14.6181 8.22915 15.1042C8.71526 15.5903 9.30554 15.8333 9.99998 15.8333Z" fill="white"/>
</svg>
